HIERARCHY
ROOT joint_Root
{
	OFFSET 0.0 0.0 0.0
	CHANNELS 6 Xposition Yposition Zposition Zrotation Xrotation Yrotation 
	JOINT Hips
	{
		OFFSET -17.1583 93.1646 452.98
		CHANNELS 6 Xposition Yposition Zposition Zrotation Xrotation Yrotation 
		JOINT Spine
		{
			OFFSET 15.7357 0.0 0.0
			CHANNELS 6 Xposition Yposition Zposition Zrotation Xrotation Yrotation 
			JOINT Chest
			{
				OFFSET 8.98455 -0.406207 0.0
				CHANNELS 6 Xposition Yposition Zposition Zrotation Xrotation Yrotation 
				JOINT Neck
				{
					OFFSET 16.3773 0.0 0.0
					CHANNELS 6 Xposition Yposition Zposition Zrotation Xrotation Yrotation 
					JOINT Head
					{
						OFFSET 6.45672 0.0 0.0
						CHANNELS 6 Xposition Yposition Zposition Zrotation Xrotation Yrotation 
						End Site
						{
							OFFSET 0.0 0.0 0.0
						}
					}
				}
				JOINT Shoulder_L
				{
					OFFSET 12.9942 -0.242716 4.98039
					CHANNELS 6 Xposition Yposition Zposition Zrotation Xrotation Yrotation 
					JOINT UpperArm_L
					{
						OFFSET 5.34809 0.0 0.0
						CHANNELS 6 Xposition Yposition Zposition Zrotation Xrotation Yrotation 
						JOINT LowerArm_L
						{
							OFFSET 24.3286 1.87007e-05 0.0
							CHANNELS 6 Xposition Yposition Zposition Zrotation Xrotation Yrotation 
							JOINT Hand_L
							{
								OFFSET 22.2916 0.0 0.0
								CHANNELS 6 Xposition Yposition Zposition Zrotation Xrotation Yrotation 
								End Site
								{
									OFFSET 0.0 0.0 0.0
								}
							}
						}
					}
				}
				JOINT Shoulder_R
				{
					OFFSET 12.9945 -0.242716 -4.98039
					CHANNELS 6 Xposition Yposition Zposition Zrotation Xrotation Yrotation 
					JOINT UpperArm_R
					{
						OFFSET -5.34813 0.0 0.0
						CHANNELS 6 Xposition Yposition Zposition Zrotation Xrotation Yrotation 
						JOINT LowerArm_R
						{
							OFFSET -24.3289 0.000322201 0.0
							CHANNELS 6 Xposition Yposition Zposition Zrotation Xrotation Yrotation 
							JOINT Hand_R
							{
								OFFSET -22.2915 -0.000108084 0.0
								CHANNELS 6 Xposition Yposition Zposition Zrotation Xrotation Yrotation 
								End Site
								{
									OFFSET 0.0 0.0 0.0
								}
							}
						}
					}
				}
			}
		}
		JOINT UpperLeg_L
		{
			OFFSET -2.19248 -6.46944 0.0
			CHANNELS 6 Xposition Yposition Zposition Zrotation Xrotation Yrotation 
			JOINT LowerLeg_L
			{
				OFFSET 39.0811 0.0 -1.23785e-05
				CHANNELS 6 Xposition Yposition Zposition Zrotation Xrotation Yrotation 
				JOINT Foot_L
				{
					OFFSET 40.9854 0.0 -1.26872e-05
					CHANNELS 6 Xposition Yposition Zposition Zrotation Xrotation Yrotation 
					JOINT Toes_L
					{
						OFFSET 11.7543 0.0 0.0
						CHANNELS 6 Xposition Yposition Zposition Zrotation Xrotation Yrotation 
						End Site
						{
							OFFSET 0.0 0.0 0.0
						}
					}
				}
			}
		}
		JOINT UpperLeg_R
		{
			OFFSET -2.19251 6.46944 0.0
			CHANNELS 6 Xposition Yposition Zposition Zrotation Xrotation Yrotation 
			JOINT LowerLeg_R
			{
				OFFSET -39.0811 -0.00228153 -0.0401928
				CHANNELS 6 Xposition Yposition Zposition Zrotation Xrotation Yrotation 
				JOINT Foot_R
				{
					OFFSET -40.9854 0.0 0.0
					CHANNELS 6 Xposition Yposition Zposition Zrotation Xrotation Yrotation 
					JOINT Toes_R
					{
						OFFSET -11.7543 0.0 0.0
						CHANNELS 6 Xposition Yposition Zposition Zrotation Xrotation Yrotation 
						End Site
						{
							OFFSET 0.0 0.0 0.0
						}
					}
				}
			}
		}
	}
}
MOTION
Frames:	4
Frame Time:	0.0333333
0.000000 0.000000 0.000000 0.000000 0.000000 -0.000000 -3.704230 91.810800 0.054786 85.439400 2.709990 7.049520 15.735700 0.000005 -0.000001 78.369300 85.386500 -77.226400 8.984550 -0.406207 -0.000000 1.292510 -1.923860 2.305750 16.377300 -0.000001 -0.000001 12.252200 0.452480 4.039590 6.456720 -0.000001 -0.000000 -6.990240 -1.976320 13.947700 12.994200 -0.242716 4.980390 -93.281800 9.322110 -70.506700 5.348090 -0.000007 -0.000001 -69.711200 29.930900 -1.683480 24.328600 0.000019 0.000005 11.666600 28.296400 -23.537200 22.291600 -0.000001 0.000005 -5.420390 5.097380 5.173650 12.994500 -0.242716 -4.980390 86.567700 8.577500 -68.093500 -5.348130 -0.000001 -0.000004 -65.868800 -3.824380 -9.268220 -24.328900 0.000322 -0.000009 18.967000 -18.632300 -132.910000 -22.291500 -0.000108 -0.000004 61.226600 5.673120 -17.956300 -2.192480 -6.469440 -0.000000 -174.538000 3.705470 -0.357918 39.081100 -0.000007 -0.000012 0.386155 -0.734695 27.727400 40.985400 -0.000006 -0.000013 0.572081 4.114810 -76.152100 11.754300 -0.000000 0.000003 -0.000787 0.179962 -9.276880 -2.192510 6.469440 -0.000001 -172.683000 12.764200 -173.336000 -39.081100 -0.002282 -0.040193 0.128395 -0.433455 16.094800 -40.985400 0.000008 0.000006 5.423590 3.671000 -72.006300 -11.754300 -0.000006 -0.000006 -0.009680 0.268897 -5.649480
0.000000 0.000000 0.000000 0.000000 0.000000 -0.000000 -3.716490 91.811300 0.044203 85.443700 2.646950 7.007050 15.735700 0.000005 -0.000001 78.289200 85.390400 -77.150400 8.984550 -0.406207 -0.000000 1.282320 -1.934780 2.297450 16.377300 -0.000001 -0.000001 12.301000 0.463293 4.162290 6.456720 -0.000001 -0.000000 -6.985050 -1.969390 14.059600 12.994200 -0.242716 4.980390 -93.269500 9.285140 -70.503600 5.348090 -0.000007 -0.000001 -69.755700 29.993500 -1.674400 24.328600 0.000019 0.000005 11.642900 28.307800 -23.485600 22.291600 -0.000001 0.000005 -5.522990 5.098900 5.138790 12.994500 -0.242716 -4.980390 86.559500 8.621090 -68.145900 -5.348130 -0.000001 -0.000004 -65.542000 -3.049210 -9.396290 -24.328900 0.000322 -0.000009 22.108400 -21.609000 -132.193000 -22.291500 -0.000108 -0.000004 60.370500 5.681700 -21.684700 -2.192480 -6.469440 -0.000000 -174.545000 3.703960 -0.389405 39.081100 -0.000007 -0.000012 0.391544 -0.745107 27.722300 40.985400 -0.000006 -0.000013 0.558870 4.077830 -76.154900 11.754300 -0.000000 0.000003 -0.000675 0.178299 -9.344450 -2.192510 6.469440 -0.000001 -172.671000 12.796900 -173.364000 -39.081100 -0.002282 -0.040193 0.129682 -0.438732 16.066500 -40.985400 0.000008 0.000006 5.530330 3.707590 -72.038600 -11.754300 -0.000006 -0.000006 -0.009836 0.270076 -5.601240
0.000000 0.000000 0.000000 0.000000 0.000000 -0.000000 -3.725350 91.804700 0.057099 85.429600 2.610010 7.075030 15.735700 0.000005 -0.000001 78.543500 85.361200 -77.420900 8.984550 -0.406207 -0.000000 1.347160 -1.904730 2.265730 16.377300 -0.000001 -0.000001 12.344500 0.459774 4.329590 6.456720 -0.000001 -0.000000 -6.997360 -2.067370 14.246100 12.994200 -0.242716 4.980390 -93.255300 9.256080 -70.526000 5.348090 -0.000007 -0.000001 -69.739800 30.110000 -1.739740 24.328600 0.000019 0.000005 11.653300 28.313400 -23.501100 22.291600 -0.000001 0.000005 -5.486120 5.098560 5.146610 12.994500 -0.242716 -4.980390 86.544000 8.671830 -68.171800 -5.348130 -0.000001 -0.000004 -65.338900 -2.458130 -9.607300 -24.328900 0.000322 -0.000009 22.607400 -22.138000 -132.144000 -22.291500 -0.000108 -0.000004 60.456700 5.680030 -22.639600 -2.192480 -6.469440 -0.000000 -174.528000 3.702730 -0.324729 39.081100 -0.000007 -0.000012 0.389473 -0.740214 27.752600 40.985400 -0.000006 -0.000013 0.540992 4.038160 -76.160300 11.754300 -0.000000 0.000003 -0.000684 0.178437 -9.338860 -2.192510 6.469440 -0.000001 -172.695000 12.855100 -173.286000 -39.081100 -0.002282 -0.040193 0.128781 -0.434656 16.099600 -40.985400 0.000008 0.000006 5.506490 3.847690 -72.061800 -11.754300 -0.000006 -0.000006 -0.009860 0.270256 -5.593900
0.000000 0.000000 0.000000 0.000000 0.000000 -0.000000 -3.733540 91.811300 0.044959 85.431600 2.640270 7.070090 15.735700 0.000005 -0.000001 78.695100 85.353700 -77.599400 8.984550 -0.406207 -0.000000 1.365980 -1.881900 2.212100 16.377300 -0.000001 -0.000001 12.349000 0.431096 4.484600 6.456720 -0.000001 -0.000000 -6.999870 -2.189610 14.467300 12.994200 -0.242716 4.980390 -93.245600 9.240730 -70.550500 5.348090 -0.000007 -0.000001 -69.726200 30.109800 -1.824820 24.328600 0.000019 0.000005 11.692500 28.308900 -23.576600 22.291600 -0.000001 0.000005 -5.447150 5.097660 5.167330 12.994500 -0.242716 -4.980390 86.554200 8.663970 -68.212500 -5.348130 -0.000001 -0.000004 -65.684200 -2.822880 -9.784920 -24.328900 0.000322 -0.000009 20.897500 -20.513700 -132.545000 -22.291500 -0.000108 -0.000004 60.555300 5.681630 -21.786900 -2.192480 -6.469440 -0.000000 -174.539000 3.789490 -0.319154 39.081100 -0.000007 -0.000012 0.390314 -0.742697 27.724500 40.985400 -0.000006 -0.000013 0.516819 3.983830 -76.191900 11.754300 -0.000000 0.000003 -0.000696 0.178622 -9.331340 -2.192510 6.469440 -0.000001 -172.641000 12.677300 -173.278000 -39.081100 -0.002282 -0.040193 0.128644 -0.436071 16.033500 -40.985400 0.000008 0.000006 5.513810 3.660500 -72.021500 -11.754300 -0.000006 -0.000006 -0.009939 0.270848 -5.569660
